<?xml version="1.0" standalone="no"?>
<!DOCTYPE svg PUBLIC "-//W3C//DTD SVG 20010904//EN"
 "http://www.w3.org/TR/2001/REC-SVG-20010904/DTD/svg10.dtd">
<svg version="1.0" xmlns="http://www.w3.org/2000/svg"
 width="256.000000pt" height="256.000000pt" viewBox="0 0 256.000000 256.000000"
 preserveAspectRatio="xMidYMid meet">
<metadata>
Created by potrace 1.14, written by Peter Selinger 2001-2017
</metadata>
<g transform="translate(0.000000,256.000000) scale(0.100000,-0.100000)"
fill="#000000" stroke="none">
<path d="M711 2549 c-273 -36 -502 -200 -621 -444 -85 -174 -85 -176 -85 -835
0 -567 0 -576 23 -658 39 -144 112 -272 212 -372 101 -101 226 -172 371 -212
83 -23 89 -23 669 -23 657 0 642 -1 810 76 172 80 306 213 386 384 80 171 79
164 79 820 -1 570 -1 581 -23 660 -83 296 -292 505 -587 587 -78 21 -96 22
-625 24 -300 1 -574 -2 -609 -7z m200 -783 c83 -18 138 -46 196 -99 57 -52 87
-99 107 -167 9 -30 16 -55 16 -57 0 -2 -47 -3 -104 -3 l-104 0 -12 30 c-34 82
-100 123 -201 124 -169 1 -269 -137 -257 -354 7 -109 35 -177 96 -230 49 -44
93 -60 162 -60 117 0 202 63 225 168 l7 32 -106 0 -106 0 0 80 0 80 203 -2
202 -3 3 -59 c4 -84 -14 -192 -44 -253 -121 -249 -514 -298 -713 -88 -94 99
-131 204 -131 373 0 95 4 126 25 189 79 233 290 351 536 299z m991 3 c83 -17
185 -76 234 -136 37 -45 94 -168 94 -201 0 -10 -26 -12 -106 -10 l-106 3 -13
38 c-28 82 -100 126 -203 127 -104 0 -171 -40 -218 -132 -71 -140 -39 -378 62
-454 126 -97 307 -56 360 82 l17 44 103 0 c79 0 104 -3 104 -13 0 -29 -51
-140 -85 -187 -151 -205 -515 -212 -686 -12 -81 95 -119 207 -119 357 0 164
43 280 139 375 110 110 259 152 423 119z"/>
</g>
</svg>
